<mxfile host="app.diagrams.net" modified="2023-09-06T07:24:39.979Z" agent="Mozilla/5.0 (Windows NT 10.0; Win64; x64) AppleWebKit/537.36 (KHTML, like Gecko) Chrome/116.0.0.0 Safari/537.36 Edg/116.0.1938.62" etag="zl-FeJo8L0vu0oXNhOkO" version="21.5.1" type="github">
  <diagram id="C5RBs43oDa-KdzZeNtuy" name="Page-1">
    <mxGraphModel dx="1619" dy="916" grid="1" gridSize="10" guides="1" tooltips="1" connect="1" arrows="1" fold="1" page="1" pageScale="1" pageWidth="827" pageHeight="1169" math="0" shadow="0">
      <root>
        <mxCell id="WIyWlLk6GJQsqaUBKTNV-0" />
        <mxCell id="WIyWlLk6GJQsqaUBKTNV-1" parent="WIyWlLk6GJQsqaUBKTNV-0" />
        <mxCell id="y-DKx0x-jgBB0CIypIgg-0" value="" style="shape=image;verticalLabelPosition=bottom;verticalAlign=top;imageAspect=0;aspect=fixed;image=data:image/svg+xml,PHN2ZyB4bWxucz0iaHR0cDovL3d3dy53My5vcmcvMjAwMC9zdmciIHZpZXdCb3g9IjAgMCAxMTYuMTIgMTE0LjY0Ij48ZGVmcz48c3R5bGU+LmNscy0xe2ZpbGw6IzVjNGVlNTtmaWxsLXJ1bGU6ZXZlbm9kZH08L3N0eWxlPjwvZGVmcz48ZyBpZD0iTGF5ZXJfMiIgZGF0YS1uYW1lPSJMYXllciAyIj48ZyBpZD0iTG9nbyI+PHBhdGggZD0iTTIuOTIgODkuMjd2LTIuMTJIMXYyLjExSDB2LTUuMDdoMXYyLjEzaDEuOTJ2LTIuMTNoMXY1LjA4em00LjYxIDBoLS43OEw2LjY4IDg5YTIuMTUgMi4xNSAwIDAxLTEuMTQuMzJjLS43IDAtMS0uNDYtMS0xLjA5cy4zNC0xIDEuMTEtMWguOTJ2LS4zOGMwLS40MS0uMTItLjU1LS43My0uNTVhNS41NSA1LjU1IDAgMDAtMS4wNi4xMWwtLjEyLS43QTUuMTggNS4xOCAwIDAxNiA4NS41M2MxLjIgMCAxLjU1LjQxIDEuNTUgMS4zMnptLTEtMS4zOGgtLjY2Yy0uMzEgMC0uNC4wOC0uNC4zNnMuMDkuMzcuMzguMzdhMS41NSAxLjU1IDAgMDAuNzItLjE5em0zIDEuNDZhNC42NyA0LjY3IDAgMDEtMS4zMi0uMjFsLjEzLS43YTQuNDQgNC40NCAwIDAwMS4xNC4xNmMuNDIgMCAuNDktLjA5LjQ5LS4zN3MwLS4zNC0uNjctLjQ4Yy0uOTMtLjIyLTEtLjQ0LTEtMS4xNXMuMzQtMS4wNiAxLjQzLTEuMDZhNS4yMiA1LjIyIDAgMDExLjE0LjEzbC0uMDkuNzNhNyA3IDAgMDAtMS4wNS0uMTFjLS40MiAwLS40OS4wOS0uNDkuMzJzMCAuMzIuNTQuNDRjMS4wNy4yNyAxLjE3LjQxIDEuMTcgMS4xNnMtLjI2IDEuMTMtMS40MSAxLjEzem00LjM4LS4wOHYtMi41NmMwLS4yLS4wOS0uMjktLjMxLS4yOWEyLjcyIDIuNzIgMCAwMC0xIC4zMXYyLjU0aC0xdi01LjE1bDEgLjE0djEuNjJhMy40OCAzLjQ4IDAgMDExLjQtLjM1Yy42MyAwIC44Ni40My44NiAxLjA4djIuNjZ6bTEuNzYtNC4xOHYtLjloMXYuOXptMCA0LjE4Vjg1LjZoMXYzLjY3em0xLjcyLTMuNjNjMC0uOTIuNTYtMS40NSAxLjg2LTEuNDVhNi4xNCA2LjE0IDAgMDExLjQyLjE3bC0uMTEuODJhOCA4IDAgMDAtMS4yOC0uMThjLS42OCAwLS45LjIzLS45Ljc2djEuOTNjMCAuNTMuMjIuNzYuOS43NmE4IDggMCAwMDEuMjgtLjEzbC4xMS44MmE2LjE0IDYuMTQgMCAwMS0xLjQyLjE3Yy0xLjMgMC0xLjg2LS41My0xLjg2LTEuNDV6bTUuMzkgMy43MWMtMS4zMSAwLTEuNjYtLjY5LTEuNjYtMS40NFY4N2MwLS43NS4zNS0xLjQ0IDEuNjYtMS40NHMxLjY2LjY5IDEuNjYgMS40NHYuOTNjMCAuNzItLjM1IDEuNDEtMS42NiAxLjQxem0wLTNjLS41MSAwLS43MS4yMi0uNzEuNjN2MWMwIC40MS4yLjYzLjcxLjYzcy43MS0uMjIuNzEtLjYzdi0xYzAtLjQ1LS4yLS42Ny0uNzEtLjY3em00LjM1LjA2YTcuNTggNy41OCAwIDAwLTEgLjUzdjIuMzZoLTF2LTMuN0gyNnYuNGE0LjM1IDQuMzUgMCAwMTEtLjQ4ek0zMSA4OGExLjEzIDEuMTMgMCAwMS0xLjI2IDEuMjkgNS40OCA1LjQ4IDAgMDEtMS0uMTF2MS41bC0xIC4xNFY4NS42aC43NmwuMDkuMzFhMi4wNiAyLjA2IDAgMDExLjIxLS4zOGMuNzcgMCAxLjE4LjQ0IDEuMTggMS4yN3ptLTIuMjguNDFhNC40MSA0LjQxIDAgMDAuODUuMWMuMzQgMCAuNDgtLjE2LjQ4LS40OXYtMS4yNGMwLS4zLS4xMi0uNDctLjQ3LS40N2ExLjM4IDEuMzggMCAwMC0uODUuMzN6TTUuODMgOTYuOTNIMHYtMy40OGgxNS42MXYzLjQ4SDkuNzh2MTcuNEg1LjgzeiIvPjxwYXRoIGQ9Ik0xOS4yMSAxMTEuNWExNiAxNiAwIDAwNC42Ny0uNzJsLjYgMi44OGExNi4zOSAxNi4zOSAwIDAxLTUuNjEgMWMtNC44IDAtNi40Ni0yLjIzLTYuNDYtNS44OXYtNGMwLTMuMjMgMS40NC02IDYuMzMtNnM2IDIuODUgNiA2LjE0djMuMjZoLTguNXYuNzhjMCAxLjgzLjY1IDIuNTUgMi45NyAyLjU1em0tMy02LjQzaDQuODZ2LS43NWMwLTEuNDQtLjQ0LTIuNDQtMi4zMi0yLjQ0cy0yLjU0IDEtMi41NCAyLjQ0em0xOC43NC0yLjgxYTI5LjkzIDI5LjkzIDAgMDAtNCAyLjIzdjkuODRoLTMuODdWOTkuMDZoMy4yM2wuMjUgMS42OWExNy4xIDE3LjEgMCAwMTQtMnptOS4zNCAwYTI5LjkzIDI5LjkzIDAgMDAtNCAyLjIzdjkuODRoLTMuODdWOTkuMDZoMy4yM2wuMjUgMS42OWExNy4xIDE3LjEgMCAwMTQtMnptMTIuNzggMTIuMDZoLTMuMTNsLS4yOC0xYTguMzUgOC4zNSAwIDAxLTQuNTQgMS4zNWMtMi43OSAwLTQtMS45MS00LTQuNTQgMC0zLjEgMS4zNS00LjI5IDQuNDUtNC4yOWgzLjY3di0xLjZjMC0xLjY5LS40Ny0yLjI5LTIuOTEtMi4yOWEyMS4zMyAyMS4zMyAwIDAwLTQuMjMuNDdsLS40Ny0yLjkxYTE5LjkyIDE5LjkyIDAgMDE1LjIzLS43MmM0LjggMCA2LjIxIDEuNjkgNi4yMSA1LjUyem0tMy44Mi01Ljc3aC0yLjgyYy0xLjI1IDAtMS42LjM0LTEuNiAxLjVzLjM0IDEuNTQgMS41NCAxLjU0YTYgNiAwIDAwMi44OC0uNzh6bTE1LjU4LTEyLjk3YTExLjIyIDExLjIyIDAgMDAtMi4xOS0uMjVjLTEuNSAwLTEuNzIuNjYtMS43MiAxLjgydjEuOTFoMy44OGwtLjIyIDNoLTMuNjd2MTIuMjJoLTMuODJWMTAyLjFoLTIuNDV2LTNoMi40NHYtMi4xN2MwLTMuMTcgMS40Ny00LjczIDQuODYtNC43M2ExMi4xMSAxMi4xMSAwIDAxMy4yOS40NHptNy40NiAxOS4wNmMtNS4yMyAwLTYuNjQtMi44OC02LjY0LTZ2LTMuODZjMC0zLjEzIDEuNDEtNiA2LjY0LTZzNi42NSAyLjg4IDYuNjUgNnYzLjg2Yy0uMDEgMy4xMS0xLjQyIDYtNi42NSA2em0wLTEyLjYzYy0yIDAtMi44Mi45MS0yLjgyIDIuNjN2NC4xMWMwIDEuNzIuNzggMi42MyAyLjgyIDIuNjNzMi44Mi0uOTEgMi44Mi0yLjYzdi00LjExYzAtMS43My0uNzktMi42NC0yLjgyLTIuNjR6bTE2LjQ4LjI1YTI5LjkzIDI5LjkzIDAgMDAtNCAyLjIzdjkuODRoLTMuODZWOTkuMDZoMy4yM2wuMjUgMS42OWExNy4xIDE3LjEgMCAwMTQtMnptMTAuNSAxMi4wNnYtMTAuNjVjMC0uODEtLjM0LTEuMjItMS4yMi0xLjIyYTEwLjU0IDEwLjU0IDAgMDAtNCAxLjI5djEwLjU5aC0zLjhWOTkuMDZoMi45MWwuMzggMS4yOWExNS4yOSAxNS4yOSAwIDAxNi4xMS0xLjYgMi45IDIuOSAwIDAxMi44OCAxLjYzIDE1IDE1IDAgMDE2LjE0LTEuNjNjMi41NCAwIDMuNDUgMS43OSAzLjQ1IDQuNTF2MTEuMDZoLTMuODJ2LTEwLjY1YzAtLjgxLS4zNC0xLjIyLTEuMjItMS4yMmExMC4xMiAxMC4xMiAwIDAwLTQgMS4yOXYxMC41OXoiLz48cGF0aCBjbGFzcz0iY2xzLTEiIGQ9Ik00Ny40OCAxMy42NGwyMS4xNiAxMi4yMlY1MC4zTDQ3LjQ4IDM4LjA4VjEzLjY0eiIvPjxwYXRoIGZpbGw9IiM0MDQwYjIiIGZpbGwtcnVsZT0iZXZlbm9kZCIgZD0iTTcwLjk2IDI1Ljg2VjUwLjNsMjEuMTctMTIuMjJWMTMuNjRMNzAuOTYgMjUuODZ6Ii8+PHBhdGggY2xhc3M9ImNscy0xIiBkPSJNMjQgMHYyNC40NGwyMS4xNiAxMi4yMlYxMi4yMkwyNCAwem0yMy40OCA2NS4xOWwyMS4xNiAxMi4yMlY1Mi45OEw0Ny40OCA0MC43NnYyNC40M3oiLz48L2c+PC9nPjwvc3ZnPg==" vertex="1" parent="WIyWlLk6GJQsqaUBKTNV-1">
          <mxGeometry x="200" y="400" width="116" height="115" as="geometry" />
        </mxCell>
        <mxCell id="y-DKx0x-jgBB0CIypIgg-1" value="" style="image;sketch=0;aspect=fixed;html=1;points=[];align=center;fontSize=12;image=img/lib/mscae/Azure_DevOps.svg;" vertex="1" parent="WIyWlLk6GJQsqaUBKTNV-1">
          <mxGeometry x="120" y="360" width="50" height="50" as="geometry" />
        </mxCell>
        <mxCell id="y-DKx0x-jgBB0CIypIgg-2" value="" style="endArrow=none;dashed=1;html=1;rounded=0;" edge="1" parent="WIyWlLk6GJQsqaUBKTNV-1">
          <mxGeometry width="50" height="50" relative="1" as="geometry">
            <mxPoint x="187" y="380" as="sourcePoint" />
            <mxPoint x="350" y="380" as="targetPoint" />
          </mxGeometry>
        </mxCell>
        <mxCell id="y-DKx0x-jgBB0CIypIgg-3" value="" style="endArrow=none;dashed=1;html=1;rounded=0;" edge="1" parent="WIyWlLk6GJQsqaUBKTNV-1">
          <mxGeometry width="50" height="50" relative="1" as="geometry">
            <mxPoint x="150" y="520" as="sourcePoint" />
            <mxPoint x="350" y="520" as="targetPoint" />
          </mxGeometry>
        </mxCell>
        <mxCell id="y-DKx0x-jgBB0CIypIgg-4" value="" style="endArrow=none;dashed=1;html=1;rounded=0;" edge="1" parent="WIyWlLk6GJQsqaUBKTNV-1">
          <mxGeometry width="50" height="50" relative="1" as="geometry">
            <mxPoint x="150" y="430" as="sourcePoint" />
            <mxPoint x="150.5" y="520" as="targetPoint" />
          </mxGeometry>
        </mxCell>
        <mxCell id="y-DKx0x-jgBB0CIypIgg-5" value="" style="endArrow=none;dashed=1;html=1;rounded=0;" edge="1" parent="WIyWlLk6GJQsqaUBKTNV-1">
          <mxGeometry width="50" height="50" relative="1" as="geometry">
            <mxPoint x="350" y="382.5" as="sourcePoint" />
            <mxPoint x="350" y="515" as="targetPoint" />
          </mxGeometry>
        </mxCell>
        <mxCell id="y-DKx0x-jgBB0CIypIgg-6" value="" style="shape=image;verticalLabelPosition=bottom;verticalAlign=top;imageAspect=0;aspect=fixed;image=data:image/svg+xml,PHN2ZyB4bWxucz0iaHR0cDovL3d3dy53My5vcmcvMjAwMC9zdmciIHZpZXdCb3g9IjAgMCAxNiAxNiI+PHBhdGggZmlsbD0iIzAwYWJlYyIgZD0iTTMuNjUgMTQuMkgxNkw5LjM1IDIuNjggNy4zMyA4LjI0bDMuODggNC42My03LjU2IDEuMzN6TTguODIgMS44TDQuMDcgNS43OSAwIDEyLjg0aDMuNjd2LjAxTDguODIgMS44eiIvPjwvc3ZnPg==" vertex="1" parent="WIyWlLk6GJQsqaUBKTNV-1">
          <mxGeometry x="680" y="360" width="50" height="50" as="geometry" />
        </mxCell>
        <mxCell id="y-DKx0x-jgBB0CIypIgg-7" value="" style="image;sketch=0;aspect=fixed;html=1;points=[];align=center;fontSize=12;image=img/lib/mscae/App_Services.svg;" vertex="1" parent="WIyWlLk6GJQsqaUBKTNV-1">
          <mxGeometry x="580" y="410" width="60" height="60" as="geometry" />
        </mxCell>
        <mxCell id="y-DKx0x-jgBB0CIypIgg-8" value="" style="endArrow=classic;html=1;rounded=0;" edge="1" parent="WIyWlLk6GJQsqaUBKTNV-1">
          <mxGeometry width="50" height="50" relative="1" as="geometry">
            <mxPoint x="400" y="439.5" as="sourcePoint" />
            <mxPoint x="470" y="439.5" as="targetPoint" />
            <Array as="points">
              <mxPoint x="430" y="439.5" />
            </Array>
          </mxGeometry>
        </mxCell>
        <mxCell id="y-DKx0x-jgBB0CIypIgg-9" value="" style="endArrow=none;dashed=1;html=1;rounded=0;" edge="1" parent="WIyWlLk6GJQsqaUBKTNV-1">
          <mxGeometry width="50" height="50" relative="1" as="geometry">
            <mxPoint x="520" y="380" as="sourcePoint" />
            <mxPoint x="673" y="380" as="targetPoint" />
          </mxGeometry>
        </mxCell>
        <mxCell id="y-DKx0x-jgBB0CIypIgg-10" value="" style="endArrow=none;dashed=1;html=1;rounded=0;" edge="1" parent="WIyWlLk6GJQsqaUBKTNV-1">
          <mxGeometry width="50" height="50" relative="1" as="geometry">
            <mxPoint x="700" y="410" as="sourcePoint" />
            <mxPoint x="700.5" y="500" as="targetPoint" />
          </mxGeometry>
        </mxCell>
        <mxCell id="y-DKx0x-jgBB0CIypIgg-11" value="" style="endArrow=none;dashed=1;html=1;rounded=0;" edge="1" parent="WIyWlLk6GJQsqaUBKTNV-1">
          <mxGeometry width="50" height="50" relative="1" as="geometry">
            <mxPoint x="520" y="500" as="sourcePoint" />
            <mxPoint x="700" y="500" as="targetPoint" />
          </mxGeometry>
        </mxCell>
        <mxCell id="y-DKx0x-jgBB0CIypIgg-12" value="" style="endArrow=none;dashed=1;html=1;rounded=0;" edge="1" parent="WIyWlLk6GJQsqaUBKTNV-1">
          <mxGeometry width="50" height="50" relative="1" as="geometry">
            <mxPoint x="520" y="382.5" as="sourcePoint" />
            <mxPoint x="520" y="500" as="targetPoint" />
          </mxGeometry>
        </mxCell>
      </root>
    </mxGraphModel>
  </diagram>
</mxfile>
